# xmcd CD database file
#
# Track frame offsets:
#	150
#	23175
#	48499
#	71449
#
# Disc length: 1288 seconds
#
# Revision: 0
# Processed by: cddbd v1.5PL3 Copyright (c) Steve Scherf et al.
# Submitted via: CDex 1.50beta8
#
DISCID=2e050604
DTITLE=みとせのりこ - PIZZICATO POLKA -彗星幻夜-
DYEAR=2003
DGENRE=Game
TTITLE0=Lost in Love
TTITLE1=ロマーニに捧げるレクイエム〜レクイエム・ロマーニ〜
TTITLE2=Lost in Love(instrumental)
TTITLE3=レクイエム・ロマーニ(instrumental)
EXTD=YEAR: 2003
EXTT0=
EXTT1=
EXTT2=
EXTT3=
PLAYORDER=
